<svg id="settings" xmlns="http://www.w3.org/2000/svg" xmlns:xlink="http://www.w3.org/1999/xlink" width="17.935" height="17.935" viewBox="0 0 17.935 17.935">
  <defs>
    <linearGradient id="linear-gradient" x1="0.5" x2="0.5" y2="1" gradientUnits="objectBoundingBox">
      <stop offset="0" stop-color="#8643ff"/>
      <stop offset="1" stop-color="#4136f1"/>
    </linearGradient>
  </defs>
  <path id="패스_10" data-name="패스 10" d="M9.53,17.935H8.4a1.653,1.653,0,0,1-1.651-1.651V15.9a7.24,7.24,0,0,1-1.124-.467l-.27.27a1.651,1.651,0,0,1-2.335,0l-.8-.8a1.651,1.651,0,0,1,0-2.335l.27-.27a7.241,7.241,0,0,1-.467-1.124H1.651A1.653,1.653,0,0,1,0,9.53V8.4A1.653,1.653,0,0,1,1.651,6.754h.381A7.242,7.242,0,0,1,2.5,5.629l-.27-.27a1.651,1.651,0,0,1,0-2.335l.8-.8a1.651,1.651,0,0,1,2.335,0l.27.27a7.247,7.247,0,0,1,1.124-.467V1.651A1.653,1.653,0,0,1,8.4,0H9.53a1.653,1.653,0,0,1,1.651,1.651v.381a7.24,7.24,0,0,1,1.124.467l.27-.27a1.651,1.651,0,0,1,2.335,0l.8.8a1.651,1.651,0,0,1,0,2.335l-.27.27A7.241,7.241,0,0,1,15.9,6.754h.381A1.653,1.653,0,0,1,17.935,8.4V9.53a1.653,1.653,0,0,1-1.651,1.651H15.9a7.242,7.242,0,0,1-.467,1.124l.27.27a1.651,1.651,0,0,1,0,2.335l-.8.8a1.651,1.651,0,0,1-2.335,0l-.27-.27a7.247,7.247,0,0,1-1.124.467v.381A1.653,1.653,0,0,1,9.53,17.935ZM5.8,14.333A6.193,6.193,0,0,0,7.41,15a.525.525,0,0,1,.394.509v.776a.6.6,0,0,0,.6.6H9.53a.6.6,0,0,0,.6-.6v-.776A.525.525,0,0,1,10.524,15a6.193,6.193,0,0,0,1.605-.666.525.525,0,0,1,.639.081l.55.55a.6.6,0,0,0,.849,0l.8-.8a.6.6,0,0,0,0-.849l-.55-.55a.525.525,0,0,1-.081-.639A6.192,6.192,0,0,0,15,10.524a.525.525,0,0,1,.509-.394h.776a.6.6,0,0,0,.6-.6V8.4a.6.6,0,0,0-.6-.6h-.776A.525.525,0,0,1,15,7.41,6.194,6.194,0,0,0,14.333,5.8a.525.525,0,0,1,.081-.639l.55-.55a.6.6,0,0,0,0-.849l-.8-.8a.6.6,0,0,0-.849,0l-.55.55a.525.525,0,0,1-.639.081,6.193,6.193,0,0,0-1.605-.666.525.525,0,0,1-.394-.509V1.651a.6.6,0,0,0-.6-.6H8.4a.6.6,0,0,0-.6.6v.776a.525.525,0,0,1-.394.509A6.193,6.193,0,0,0,5.8,3.6a.525.525,0,0,1-.639-.081l-.55-.55a.6.6,0,0,0-.849,0l-.8.8a.6.6,0,0,0,0,.849l.55.55A.525.525,0,0,1,3.6,5.8,6.192,6.192,0,0,0,2.936,7.41a.525.525,0,0,1-.509.394H1.651a.6.6,0,0,0-.6.6V9.53a.6.6,0,0,0,.6.6h.776a.525.525,0,0,1,.509.394A6.194,6.194,0,0,0,3.6,12.13a.525.525,0,0,1-.081.639l-.55.55a.6.6,0,0,0,0,.849l.8.8a.6.6,0,0,0,.849,0l.55-.55a.528.528,0,0,1,.639-.081Z" transform="translate(0 0)" fill="url(#linear-gradient)"/>
  <path id="패스_11" data-name="패스 11" d="M148.5,152.4a3.9,3.9,0,1,1,3.9-3.9A3.907,3.907,0,0,1,148.5,152.4Zm0-6.754a2.851,2.851,0,1,0,2.851,2.851A2.855,2.855,0,0,0,148.5,145.651Z" transform="translate(-139.535 -139.535)" fill="url(#linear-gradient)"/>
</svg>
