<svg xmlns="http://www.w3.org/2000/svg" xmlns:xlink="http://www.w3.org/1999/xlink" width="18" height="20" viewBox="0 0 18 20">
  <defs>
    <linearGradient id="linear-gradient" x1="0.5" x2="0.5" y2="1" gradientUnits="objectBoundingBox">
      <stop offset="0" stop-color="#8643ff"/>
      <stop offset="1" stop-color="#4136f1"/>
    </linearGradient>
  </defs>
  <g id="그룹_48" data-name="그룹 48" transform="translate(-46 -591)">
    <g id="그룹_39" data-name="그룹 39">
      <ellipse id="Ellipse_744" cx="5.625" cy="5.556" rx="5.625" ry="5.556" transform="translate(49.375 591)" fill="url(#linear-gradient)"/>
      <path id="Path_34198" d="M17.99,3.342h0a1.854,1.854,0,0,0,0-.237,2.143,2.143,0,0,0-.244-.84C17.2,1.2,15.666.712,14.387.438A18.877,18.877,0,0,0,11.614.073L10.637,0H7.357L6.38.073A18.877,18.877,0,0,0,3.607.438C2.328.676.795,1.169.248,2.265A2.143,2.143,0,0,0,0,3.105a1.854,1.854,0,0,0,0,.237H0A2.007,2.007,0,0,0,0,3.58a2.146,2.146,0,0,0,.254.831C.8,5.479,2.338,5.963,3.617,6.237A21.707,21.707,0,0,0,6.39,6.6l.976.064h3.281l.976-.064A21.707,21.707,0,0,0,14.4,6.237c1.279-.247,2.812-.731,3.359-1.826A2.368,2.368,0,0,0,18,3.562,1.786,1.786,0,0,0,17.99,3.342Z" transform="translate(46 604.333)" fill="url(#linear-gradient)"/>
    </g>
    <ellipse id="Ellipse_744-2" data-name="Ellipse_744" cx="2.625" cy="2.556" rx="2.625" ry="2.556" transform="translate(52.375 594)" fill="#110c27"/>
    <path id="Path_34198-2" data-name="Path_34198" d="M11.244.817h0a.178.178,0,0,0,0-.058.355.355,0,0,0-.153-.205,5.329,5.329,0,0,0-2.1-.447C8.422.061,7.842.031,7.259.018L6.648,0H4.6l-.61.018C3.4.031,2.825.061,2.254.107a5.066,5.066,0,0,0-2.1.447A.355.355,0,0,0,0,.759.178.178,0,0,0,0,.817H0A.193.193,0,0,0,0,.875a.37.37,0,0,0,.159.2,5.329,5.329,0,0,0,2.1.447c.571.044,1.151.074,1.733.089l.61.016H6.655l.61-.016C7.848,1.6,8.427,1.57,9,1.525a5.1,5.1,0,0,0,2.1-.447A.388.388,0,0,0,11.25.871.175.175,0,0,0,11.244.817Z" transform="translate(49.375 606.852)" fill="#120d28"/>
  </g>
</svg>
