<svg xmlns="http://www.w3.org/2000/svg" width="8" height="14" viewBox="0 0 8 14">
  <g id="다각형_2" data-name="다각형 2" transform="translate(8) rotate(90)" fill="none">
    <path d="M5.871,1.29a1.5,1.5,0,0,1,2.258,0l3.694,4.222A1.5,1.5,0,0,1,10.694,8H3.306A1.5,1.5,0,0,1,2.177,5.512Z" stroke="none"/>
    <path d="M 6.999999523162842 1.777890205383301 C 6.91525936126709 1.777890205383301 6.75369930267334 1.800070285797119 6.623719692230225 1.948630332946777 L 2.929369926452637 6.170740127563477 C 2.737879753112793 6.389590263366699 2.810309410095215 6.618400096893311 2.850339889526367 6.706610202789307 C 2.890369415283203 6.794830322265625 3.014859199523926 7 3.305649757385254 7 L 10.69434928894043 7 C 10.98513984680176 7 11.10962963104248 6.794820308685303 11.14966011047363 6.706610202789307 C 11.18968963623047 6.618390083312988 11.26211929321289 6.389590263366699 11.07062911987305 6.170740127563477 L 7.376279354095459 1.948630332946777 C 7.246289730072021 1.800070285797119 7.084729671478271 1.777890205383301 6.999999523162842 1.777890205383301 M 6.999999523162842 0.7778878211975098 C 7.415027141571045 0.7778878211975098 7.830054759979248 0.9486351013183594 8.128859519958496 1.290130138397217 L 11.82320976257324 5.512240409851074 C 12.67184925079346 6.482120513916016 11.98307991027832 8 10.69434928894043 8 L 3.305649757385254 8 C 2.016909599304199 8 1.328149795532227 6.482120513916016 2.176789283752441 5.512240409851074 L 5.871139526367188 1.290130138397217 C 6.169944286346436 0.9486351013183594 6.584971904754639 0.7778878211975098 6.999999523162842 0.7778878211975098 Z" stroke="none" fill="#4136f1"/>
  </g>
</svg>
