<svg xmlns="http://www.w3.org/2000/svg" width="15.272" height="10.966" viewBox="0 0 15.272 10.966">
  <g id="그룹_676" data-name="그룹 676" transform="translate(-335.694 -187.331)">
    <path id="Exclusion_1" data-name="Exclusion 1" d="M11.144,7.428a.311.311,0,0,1-.214-.085,4.9,4.9,0,0,0-6.585,0,.311.311,0,0,1-.214.085.307.307,0,0,1-.22-.091L2.758,6.17a.322.322,0,0,1,0-.459,7.158,7.158,0,0,1,9.752,0,.322.322,0,0,1,.1.229.326.326,0,0,1-.094.23L11.364,7.337A.309.309,0,0,1,11.144,7.428ZM13.8,4.743a.305.305,0,0,1-.214-.087,8.64,8.64,0,0,0-11.907,0,.309.309,0,0,1-.434,0L.094,3.486a.322.322,0,0,1,0-.456,10.9,10.9,0,0,1,15.08,0,.325.325,0,0,1,.1.228.319.319,0,0,1-.094.229L14.023,4.652A.306.306,0,0,1,13.8,4.743Z" transform="translate(335.694 187.331)" fill="#fff" opacity="0.5"/>
    <path id="Wifi-path" d="M4.532,1.266A.314.314,0,0,0,4.523.809,3.422,3.422,0,0,0,.1.809a.314.314,0,0,0-.01.457l2,2.016a.312.312,0,0,0,.443,0Z" transform="translate(341.017 194.922)" fill="#fff"/>
  </g>
</svg>
